<svg width="24" height="24" viewBox="0 0 24 24" fill="none" xmlns="http://www.w3.org/2000/svg">
<g clip-path="url(#clip0_513_7202)">
<g filter="url(#filter0_d_513_7202)">
<path d="M22 11V13H21V14H20V15H18V16H16V17H15V18H13V19H11V20H10V21H8V22H6V23H3V22H2V2H3V1H6V2H8V3H10V4H11V5H13V6H15V7H16V8H18V9H20V10H21V11H22Z" fill="#FAF9F7"/>
<path d="M22 11V13H21V14H20V15H18V16H16V17H15V18H13V19H11V20H10V21H8V22H6V23H3V22H2V2H3V1H6V2H8V3H10V4H11V5H13V6H15V7H16V8H18V9H20V10H21V11H22Z" stroke="#2E2E2E"/>
</g>
</g>
<defs>
<filter id="filter0_d_513_7202" x="0.5" y="-0.5" width="27" height="29" filterUnits="userSpaceOnUse" color-interpolation-filters="sRGB">
<feFlood flood-opacity="0" result="BackgroundImageFix"/>
<feColorMatrix in="SourceAlpha" type="matrix" values="0 0 0 0 0 0 0 0 0 0 0 0 0 0 0 0 0 0 127 0" result="hardAlpha"/>
<feOffset dx="2" dy="2"/>
<feGaussianBlur stdDeviation="1.5"/>
<feComposite in2="hardAlpha" operator="out"/>
<feColorMatrix type="matrix" values="0 0 0 0 0 0 0 0 0 0 0 0 0 0 0 0 0 0 0.25 0"/>
<feBlend mode="normal" in2="BackgroundImageFix" result="effect1_dropShadow_513_7202"/>
<feBlend mode="normal" in="SourceGraphic" in2="effect1_dropShadow_513_7202" result="shape"/>
</filter>
<clipPath id="clip0_513_7202">
<rect width="24" height="24" fill="white"/>
</clipPath>
</defs>
</svg>
