<svg width="80" height="80" viewBox="0 0 80 80" fill="none" xmlns="http://www.w3.org/2000/svg">
<g filter="url(#filter0_d_767_307)">
<path d="M23.3333 63.3335V56.6668H26.6666V53.3335H29.9999V50.0002H33.3333V46.6668H36.6666V43.3335H39.9999V36.6668H36.6666V33.3335H33.3333V30.0002H29.9999V26.6668H26.6666V23.3335H23.3333V16.6668H26.6666V13.3335H33.3333V16.6668H36.6666V20.0002H39.9999V23.3335H43.3333V26.6668H46.6666V30.0002H49.9999V33.3335H53.3333V36.6668H56.6666V43.3335H53.3333V46.6668H49.9999V50.0002H46.6666V53.3335H43.3333V56.6668H39.9999V60.0002H36.6666V63.3335H33.3333V66.6668H26.6666V63.3335H23.3333Z" fill="#2E2E2E"/>
<path d="M33.8333 12.8335V16.1665H37.1663V19.5005H40.5002V22.8335H43.8333V26.1665H47.1663V29.5005H50.5002V32.8335H53.8333V36.1665H57.1663V43.8335H53.8333V47.1665H50.5002V50.5005H47.1663V53.8335H43.8333V57.1665H40.5002V60.5005H37.1663V63.8335H33.8333V67.1665H26.1663V63.8335H22.8333V56.1665H26.1663V52.8335H29.5002V49.5005H32.8333V46.1665H36.1663V42.8335H39.5002V37.1665H36.1663V33.8335H32.8333V30.5005H29.5002V27.1665H26.1663V23.8335H22.8333V16.1665H26.1663V12.8335H33.8333Z" stroke="#FAF9F7"/>
</g>
<defs>
<filter id="filter0_d_767_307" x="21.3333" y="11.3335" width="41.3333" height="61.3335" filterUnits="userSpaceOnUse" color-interpolation-filters="sRGB">
<feFlood flood-opacity="0" result="BackgroundImageFix"/>
<feColorMatrix in="SourceAlpha" type="matrix" values="0 0 0 0 0 0 0 0 0 0 0 0 0 0 0 0 0 0 127 0" result="hardAlpha"/>
<feOffset dx="2" dy="2"/>
<feGaussianBlur stdDeviation="1.5"/>
<feComposite in2="hardAlpha" operator="out"/>
<feColorMatrix type="matrix" values="0 0 0 0 0 0 0 0 0 0 0 0 0 0 0 0 0 0 0.25 0"/>
<feBlend mode="normal" in2="BackgroundImageFix" result="effect1_dropShadow_767_307"/>
<feBlend mode="normal" in="SourceGraphic" in2="effect1_dropShadow_767_307" result="shape"/>
</filter>
</defs>
</svg>
