<svg width="72" height="80" viewBox="0 0 72 80" fill="none" xmlns="http://www.w3.org/2000/svg">
<g filter="url(#filter0_d_767_311)">
<path d="M48.6667 16.6668V23.3335H45.3334V26.6668H42V30.0002H38.6667V33.3335H35.3334V36.6668H32V43.3335H35.3334V46.6668H38.6667V50.0002H42V53.3335H45.3334V56.6668H48.6667V63.3335H45.3334V66.6668H38.6667V63.3335H35.3334V60.0002H32V56.6668H28.6667V53.3335H25.3334V50.0002H22V46.6668H18.6667V43.3335H15.3334V36.6668H18.6667V33.3335H22V30.0002H25.3334V26.6668H28.6667V23.3335H32V20.0002H35.3334V16.6668H38.6667V13.3335H45.3334V16.6668H48.6667Z" fill="#2E2E2E"/>
<path d="M45.8334 12.8335V16.1665H49.1664V23.8335H45.8334V27.1665H42.5004V30.5005H39.1664V33.8335H35.8334V37.1665H32.5004V42.8335H35.8334V46.1665H39.1664V49.5005H42.5004V52.8335H45.8334V56.1665H49.1664V63.8335H45.8334V67.1665H38.1664V63.8335H34.8334V60.5005H31.5004V57.1665H28.1664V53.8335H24.8334V50.5005H21.5004V47.1665H18.1664V43.8335H14.8334V36.1665H18.1664V32.8335H21.5004V29.5005H24.8334V26.1665H28.1664V22.8335H31.5004V19.5005H34.8334V16.1665H38.1664V12.8335H45.8334Z" stroke="#FAF9F7"/>
</g>
<defs>
<filter id="filter0_d_767_311" x="13.3334" y="11.3335" width="41.3334" height="61.3335" filterUnits="userSpaceOnUse" color-interpolation-filters="sRGB">
<feFlood flood-opacity="0" result="BackgroundImageFix"/>
<feColorMatrix in="SourceAlpha" type="matrix" values="0 0 0 0 0 0 0 0 0 0 0 0 0 0 0 0 0 0 127 0" result="hardAlpha"/>
<feOffset dx="2" dy="2"/>
<feGaussianBlur stdDeviation="1.5"/>
<feComposite in2="hardAlpha" operator="out"/>
<feColorMatrix type="matrix" values="0 0 0 0 0 0 0 0 0 0 0 0 0 0 0 0 0 0 0.25 0"/>
<feBlend mode="normal" in2="BackgroundImageFix" result="effect1_dropShadow_767_311"/>
<feBlend mode="normal" in="SourceGraphic" in2="effect1_dropShadow_767_311" result="shape"/>
</filter>
</defs>
</svg>
