<svg width="319" height="49" viewBox="0 0 319 49" fill="none" xmlns="http://www.w3.org/2000/svg">
<g filter="url(#filter0_d_767_341)">
<rect x="3" y="3" width="307" height="37" rx="10" fill="#2E2E2E" shape-rendering="crispEdges"/>
<rect x="2" y="2" width="309" height="39" rx="11" stroke="#2E2E2E" stroke-width="2" shape-rendering="crispEdges"/>
<g clip-path="url(#clip0_767_341)">
<g filter="url(#filter1_d_767_341)">
<path d="M34 21V23H33V24H32V25H30V26H28V27H27V28H25V29H23V30H22V31H20V32H18V33H15V32H14V12H15V11H18V12H20V13H22V14H23V15H25V16H27V17H28V18H30V19H32V20H33V21H34Z" fill="#FAF9F7"/>
<path d="M34 21V23H33V24H32V25H30V26H28V27H27V28H25V29H23V30H22V31H20V32H18V33H15V32H14V12H15V11H18V12H20V13H22V14H23V15H25V16H27V17H28V18H30V19H32V20H33V21H34Z" stroke="#2E2E2E"/>
</g>
</g>
<path d="M49.5455 13.1818H52.0909V18.2727H49.5455V13.1818ZM52.0909 18.2727H59.7273V20.8182H52.0909V18.2727ZM59.7273 28.4545V31H52.0909V28.4545H59.7273ZM52.0909 28.4545H49.5455V25.9091H52.0909V28.4545ZM59.7273 20.8182H62.2727V28.4545H59.7273V20.8182ZM52.0909 10.6364H59.7273V13.1818H52.0909V10.6364ZM59.7273 13.1818H62.2727V15.7273H59.7273V13.1818ZM69.919 15.7273H77.5554V18.2727H69.919V15.7273ZM67.3736 18.2727H69.919V20.8182H77.5554V18.2727H80.1009V23.3636H69.919V28.4545H67.3736V18.2727ZM69.919 28.4545H77.5554V31H69.919V28.4545ZM77.5554 25.9091H80.1009V28.4545H77.5554V25.9091ZM87.7472 15.7273H95.3835V18.2727H87.7472V15.7273ZM85.2017 18.2727H87.7472V20.8182H95.3835V18.2727H97.929V23.3636H87.7472V28.4545H85.2017V18.2727ZM87.7472 28.4545H95.3835V31H87.7472V28.4545ZM95.3835 25.9091H97.929V28.4545H95.3835V25.9091ZM120.858 15.7273H125.949V18.2727H123.403V31H120.858V15.7273ZM125.949 18.2727H128.494V31H125.949V18.2727ZM131.04 18.2727H128.494V15.7273H131.04V18.2727ZM131.04 18.2727H133.585V31H131.04V18.2727ZM138.686 15.7273H141.232V23.3636H138.686V15.7273ZM148.868 15.7273H151.413V23.3636H148.868V15.7273ZM143.777 28.4545H146.322V33.5455H143.777V28.4545ZM143.777 33.5455V36.0909H138.686V33.5455H143.777ZM146.322 23.3636H148.868V28.4545H146.322V23.3636ZM141.232 23.3636H143.777V28.4545H141.232V23.3636ZM184.524 10.6364H187.07V31H184.524V28.4545H181.979V25.9091H184.524V20.8182H181.979V18.2727H184.524V10.6364ZM181.979 28.4545V31H176.888V28.4545H181.979ZM176.888 28.4545H174.342V18.2727H176.888V28.4545ZM181.979 18.2727H176.888V15.7273H181.979V18.2727ZM197.261 15.7273V18.2727H199.807V20.8182H197.261V28.4545H202.352V31H192.17V28.4545H194.716V18.2727H192.17V15.7273H197.261ZM204.898 15.7273V18.2727H199.807V15.7273H204.898ZM212.544 15.7273H220.18V18.2727H212.544V15.7273ZM209.999 18.2727H212.544V20.8182H220.18V18.2727H222.726V23.3636H212.544V28.4545H209.999V18.2727ZM212.544 28.4545H220.18V31H212.544V28.4545ZM220.18 25.9091H222.726V28.4545H220.18V25.9091ZM227.827 23.3636H230.372V28.4545H227.827V23.3636ZM230.372 28.4545H235.463V31H230.372V28.4545ZM235.463 25.9091H238.009V23.3636H230.372V20.8182H238.009V18.2727H240.554V31H238.009V28.4545H235.463V25.9091ZM230.372 15.7273H238.009V18.2727H230.372V15.7273ZM245.655 15.7273H250.746V18.2727H248.2V31H245.655V15.7273ZM250.746 18.2727H253.291V31H250.746V18.2727ZM255.837 18.2727H253.291V15.7273H255.837V18.2727ZM255.837 18.2727H258.382V31H255.837V18.2727ZM273.665 28.4545V31H266.028V28.4545H273.665ZM266.028 28.4545H263.483V25.9091H266.028V28.4545ZM273.665 15.7273V18.2727H266.028V15.7273H273.665ZM263.483 18.2727H266.028V20.8182H263.483V18.2727ZM266.028 20.8182H273.665V23.3636H266.028V20.8182ZM273.665 23.3636H276.21V28.4545H273.665V23.3636ZM273.665 18.2727H276.21V20.8182H273.665V18.2727ZM286.402 10.6364H288.947V25.9091H286.402V10.6364ZM286.402 28.4545H288.947V31H286.402V28.4545Z" fill="#FAF9F7"/>
</g>
<defs>
<filter id="filter0_d_767_341" x="0" y="0" width="319" height="49" filterUnits="userSpaceOnUse" color-interpolation-filters="sRGB">
<feFlood flood-opacity="0" result="BackgroundImageFix"/>
<feColorMatrix in="SourceAlpha" type="matrix" values="0 0 0 0 0 0 0 0 0 0 0 0 0 0 0 0 0 0 127 0" result="hardAlpha"/>
<feOffset dx="3" dy="3"/>
<feGaussianBlur stdDeviation="2"/>
<feComposite in2="hardAlpha" operator="out"/>
<feColorMatrix type="matrix" values="0 0 0 0 0 0 0 0 0 0 0 0 0 0 0 0 0 0 1 0"/>
<feBlend mode="normal" in2="BackgroundImageFix" result="effect1_dropShadow_767_341"/>
<feBlend mode="normal" in="SourceGraphic" in2="effect1_dropShadow_767_341" result="shape"/>
</filter>
<filter id="filter1_d_767_341" x="12.5" y="9.5" width="27" height="29" filterUnits="userSpaceOnUse" color-interpolation-filters="sRGB">
<feFlood flood-opacity="0" result="BackgroundImageFix"/>
<feColorMatrix in="SourceAlpha" type="matrix" values="0 0 0 0 0 0 0 0 0 0 0 0 0 0 0 0 0 0 127 0" result="hardAlpha"/>
<feOffset dx="2" dy="2"/>
<feGaussianBlur stdDeviation="1.5"/>
<feComposite in2="hardAlpha" operator="out"/>
<feColorMatrix type="matrix" values="0 0 0 0 0 0 0 0 0 0 0 0 0 0 0 0 0 0 0.25 0"/>
<feBlend mode="normal" in2="BackgroundImageFix" result="effect1_dropShadow_767_341"/>
<feBlend mode="normal" in="SourceGraphic" in2="effect1_dropShadow_767_341" result="shape"/>
</filter>
<clipPath id="clip0_767_341">
<rect width="24" height="24" fill="white" transform="translate(12 10)"/>
</clipPath>
</defs>
</svg>
