<svg width="64" height="64" viewBox="0 0 64 64" fill="none" xmlns="http://www.w3.org/2000/svg">
<circle cx="32" cy="32" r="32" fill="#FAF9F7"/>
<path d="M21.5833 26.7499H19.5V18.4166H21.5833V14.2499H23.6667V12.1666H27.8333V10.0833H36.1667V12.1666H40.3333V14.2499H42.4167V18.4166H44.5V26.7499H42.4167V30.9166H40.3333V32.9999H36.1667V35.0833H27.8333V32.9999H23.6667V30.9166H21.5833V26.7499Z" fill="#2F5A41"/>
<path d="M52.8334 47.5833V53.8333H50.7501V55.9167H13.2501V53.8333H11.1667V47.5833H13.2501V45.5H15.3334V43.4167H17.4167V41.3333H21.5834V39.25H42.4167V41.3333H46.5834V43.4167H48.6667V45.5H50.7501V47.5833H52.8334Z" fill="#2F5A41"/>
</svg>
