<svg width="60" height="60" viewBox="0 0 60 60" fill="none" xmlns="http://www.w3.org/2000/svg">
<rect width="60" height="60" rx="30" fill="#2F5A41"/>
<path d="M27.9166 7.0835L32.0833 7.0835L32.0833 9.16683L34.1666 9.16683L34.1666 11.2502L36.2499 11.2502L36.2499 13.3335L38.3333 13.3335L38.3333 15.4168L40.4166 15.4168L40.4166 17.5002L42.4999 17.5002L42.4999 19.5835L44.5833 19.5835L44.5833 21.6668L46.6666 21.6668L46.6666 23.7502L48.7499 23.7502L48.7499 25.8335L50.8333 25.8335L50.8333 27.9168L52.9166 27.9168L52.9166 30.0002L50.8333 30.0002L50.8333 32.0835L48.7499 32.0835L48.7499 34.1668L46.6666 34.1668L46.6666 32.0835L44.5833 32.0835L44.5833 30.0002L42.4999 30.0002L42.4999 27.9168L40.4166 27.9168L40.4166 25.8335L38.3333 25.8335L38.3333 23.7502L36.2499 23.7502L36.2499 21.6668L34.1666 21.6668L34.1666 52.9168L25.8333 52.9168L25.8333 21.6668L23.7499 21.6668L23.7499 23.7502L21.6666 23.7502L21.6666 25.8335L19.5833 25.8335L19.5833 27.9168L17.4999 27.9168L17.4999 30.0002L15.4166 30.0002L15.4166 32.0835L13.3333 32.0835L13.3333 34.1668L11.2499 34.1668L11.2499 32.0835L9.16659 32.0835L9.16659 30.0002L7.08325 30.0002L7.08325 27.9168L9.16659 27.9168L9.16659 25.8335L11.2499 25.8335L11.2499 23.7502L13.3333 23.7502L13.3333 21.6668L15.4166 21.6668L15.4166 19.5835L17.4999 19.5835L17.4999 17.5002L19.5833 17.5002L19.5833 15.4168L21.6666 15.4168L21.6666 13.3335L23.7499 13.3335L23.7499 11.2502L25.8333 11.2502L25.8333 9.16683L27.9166 9.16683L27.9166 7.0835Z" fill="#C4C4C4"/>
</svg>
